<svg xmlns="http://www.w3.org/2000/svg" viewBox="0 0 64 64" fill="none">
  <rect width="64" height="64" rx="16" fill="#2F6DF6"/>
  <path d="M15 18.5C15 16.57 16.57 15 18.5 15H29C32.87 15 36 18.13 36 22V47C33.84 45.08 31.1 44 28 44H18.5C16.57 44 15 42.43 15 40.5V18.5Z" fill="white" fill-opacity=".96"/>
  <path d="M49 18.5C49 16.57 47.43 15 45.5 15H35C31.13 15 28 18.13 28 22V47C30.16 45.08 32.9 44 36 44H45.5C47.43 44 49 42.43 49 40.5V18.5Z" fill="white" fill-opacity=".78"/>
  <path d="M32 22V47" stroke="#2F6DF6" stroke-width="2"/>
</svg>
