<svg xmlns="http://www.w3.org/2000/svg" width="1400" height="760" viewBox="0 0 1400 760" role="img" aria-labelledby="title description" shape-rendering="geometricPrecision" text-rendering="optimizeLegibility">
  <title id="title">Collection View 구성 요소의 역할</title>
  <desc id="description">앱 모델이 snapshot을 만들고 diffable data source가 Collection View에 상태를 적용한다. Collection View는 layout과 재사용 셀에 필요한 정보를 요청하고, prefetch data source에 표시 전 데이터 준비를 요청하며, delegate에 사용자 이벤트를 전달한다.</desc>
  <defs>
    <style>
      .title { font-family: "Helvetica Neue", "Apple SD Gothic Neo", Arial, sans-serif; font-size: 32px; font-weight: 700; fill: #111827; }
      .subtitle { font-family: "Helvetica Neue", "Apple SD Gothic Neo", Arial, sans-serif; font-size: 17px; font-weight: 500; fill: #64748b; }
      .box-title { font-family: "Helvetica Neue", "Apple SD Gothic Neo", Arial, sans-serif; font-size: 22px; font-weight: 700; fill: #0f172a; }
      .box-text { font-family: "Helvetica Neue", "Apple SD Gothic Neo", Arial, sans-serif; font-size: 16px; font-weight: 500; fill: #475569; }
      .code { font-family: "SFMono-Regular", Menlo, Monaco, Consolas, monospace; font-size: 17px; font-weight: 700; fill: #075dcc; }
      .label { font-family: "Helvetica Neue", "Apple SD Gothic Neo", Arial, sans-serif; font-size: 14px; font-weight: 700; fill: #075dcc; }
      .flow { fill: none; stroke: #1675ea; stroke-width: 3; stroke-linecap: round; }
      .request { fill: none; stroke: #7c3aed; stroke-width: 3; stroke-linecap: round; stroke-dasharray: 9 8; }
      .prefetch { fill: none; stroke: #0f766e; stroke-width: 3; stroke-linecap: round; stroke-dasharray: 9 8; }
      .delegate { fill: none; stroke: #d97706; stroke-width: 3; stroke-linecap: round; stroke-dasharray: 9 8; }
      .code-teal { fill: #0f766e; }
      .code-amber { fill: #b45309; font-size: 15px; }
    </style>
    <marker id="blue-arrow" viewBox="0 0 8 8" refX="7" refY="4" markerWidth="7" markerHeight="7" orient="auto">
      <path d="M0 0L8 4L0 8Z" fill="#1675ea"/>
    </marker>
    <marker id="purple-arrow" viewBox="0 0 8 8" refX="7" refY="4" markerWidth="7" markerHeight="7" orient="auto">
      <path d="M0 0L8 4L0 8Z" fill="#7c3aed"/>
    </marker>
    <marker id="teal-arrow" viewBox="0 0 8 8" refX="7" refY="4" markerWidth="7" markerHeight="7" orient="auto">
      <path d="M0 0L8 4L0 8Z" fill="#0f766e"/>
    </marker>
    <marker id="amber-arrow" viewBox="0 0 8 8" refX="7" refY="4" markerWidth="7" markerHeight="7" orient="auto">
      <path d="M0 0L8 4L0 8Z" fill="#d97706"/>
    </marker>
    <filter id="shadow" x="-10%" y="-10%" width="120%" height="130%">
      <feDropShadow dx="0" dy="5" stdDeviation="7" flood-color="#0f172a" flood-opacity=".08"/>
    </filter>
  </defs>

  <rect width="1400" height="760" rx="28" fill="#f8fafc"/>
  <text class="title" x="60" y="66">Collection View는 데이터·표시·배치·이벤트를 나눠요</text>
  <text class="subtitle" x="60" y="99">상태 적용부터 셀 구성, 미리 가져오기, 사용자 이벤트까지 역할별로 연결돼요.</text>

  <g>
    <rect x="60" y="170" width="250" height="180" rx="22" fill="#ffffff" filter="url(#shadow)"/>
    <rect x="60" y="170" width="250" height="180" rx="22" fill="#ffffff"/>
    <path d="M82 170H288Q310 170 310 192V328Q310 350 288 350H82" fill="none" stroke="#cbd5e1" stroke-width="2" stroke-linecap="round" stroke-linejoin="round"/>
    <path d="M82 170Q60 170 60 192V328Q60 350 82 350" fill="none" stroke="#0f7ae5" stroke-width="8" stroke-linecap="round" stroke-linejoin="round"/>
    <text class="box-title" x="90" y="218">앱 모델</text>
    <text class="code" x="90" y="254">[Photo.ID: Photo]</text>
    <text class="box-text" x="90" y="294">실제 데이터와 상태를 저장</text>
    <text class="box-text" x="90" y="321">정체성은 ID로 유지</text>
  </g>

  <g>
    <rect x="395" y="170" width="270" height="180" rx="22" fill="#ffffff" filter="url(#shadow)"/>
    <rect x="395" y="170" width="270" height="180" rx="22" fill="#ffffff"/>
    <path d="M417 170H643Q665 170 665 192V328Q665 350 643 350H417" fill="none" stroke="#cbd5e1" stroke-width="2" stroke-linecap="round" stroke-linejoin="round"/>
    <path d="M417 170Q395 170 395 192V328Q395 350 417 350" fill="none" stroke="#0f7ae5" stroke-width="8" stroke-linecap="round" stroke-linejoin="round"/>
    <text class="box-title" x="425" y="218">Snapshot</text>
    <text class="code" x="425" y="254">Section + Item.ID</text>
    <text class="box-text" x="425" y="294">한 시점의 순서와 포함 관계</text>
    <text class="box-text" x="425" y="321">화면의 목표 상태를 표현</text>
  </g>

  <g>
    <rect x="750" y="170" width="290" height="180" rx="22" fill="#ffffff" filter="url(#shadow)"/>
    <rect x="750" y="170" width="290" height="180" rx="22" fill="#ffffff"/>
    <path d="M772 170H1018Q1040 170 1040 192V328Q1040 350 1018 350H772" fill="none" stroke="#cbd5e1" stroke-width="2" stroke-linecap="round" stroke-linejoin="round"/>
    <path d="M772 170Q750 170 750 192V328Q750 350 772 350" fill="none" stroke="#0f7ae5" stroke-width="8" stroke-linecap="round" stroke-linejoin="round"/>
    <text class="box-title" x="780" y="218">Diffable Data Source</text>
    <text class="code" x="780" y="254">apply(snapshot)</text>
    <text class="box-text" x="780" y="294">이전 상태와 차이를 계산</text>
    <text class="box-text" x="780" y="321">item ID로 셀 구성을 요청</text>
  </g>

  <g>
    <rect x="1125" y="170" width="215" height="180" rx="22" fill="#ffffff" filter="url(#shadow)"/>
    <rect x="1125" y="170" width="215" height="180" rx="22" fill="#ffffff"/>
    <path d="M1147 170H1318Q1340 170 1340 192V328Q1340 350 1318 350H1147" fill="none" stroke="#1675ea" stroke-width="3" stroke-linecap="round" stroke-linejoin="round"/>
    <path d="M1147 170Q1125 170 1125 192V328Q1125 350 1147 350" fill="none" stroke="#1675ea" stroke-width="8" stroke-linecap="round" stroke-linejoin="round"/>
    <text class="box-title" x="1155" y="218">UICollectionView</text>
    <text class="box-text" x="1155" y="260">스크롤·선택 관리</text>
    <text class="box-text" x="1155" y="290">재사용 뷰 요청</text>
    <text class="box-text" x="1155" y="320">화면에 실제 배치</text>
  </g>

  <path class="flow" d="M310 260H389"/>
  <path d="M389 260L382 256V264Z" fill="#1675ea"/>
  <rect x="319" y="229" width="62" height="26" rx="13" fill="#e8f3ff"/>
  <text class="label" x="350" y="247" text-anchor="middle">ID 추출</text>

  <path class="flow" d="M665 260H744"/>
  <path d="M744 260L737 256V264Z" fill="#1675ea"/>
  <rect x="674" y="229" width="58" height="26" rx="13" fill="#e8f3ff"/>
  <text class="label" x="703" y="247" text-anchor="middle">적용</text>

  <path class="flow" d="M1040 260H1119"/>
  <path d="M1119 260L1112 256V264Z" fill="#1675ea"/>
  <rect x="1044" y="229" width="66" height="26" rx="13" fill="#e8f3ff"/>
  <text class="label" x="1077" y="247" text-anchor="middle">차이 반영</text>

  <g>
    <rect x="60" y="520" width="280" height="160" rx="22" fill="#ffffff" filter="url(#shadow)"/>
    <rect x="60" y="520" width="280" height="160" rx="22" fill="#ffffff"/>
    <path d="M82 520H318Q340 520 340 542V658Q340 680 318 680H82" fill="none" stroke="#a78bfa" stroke-width="2" stroke-linecap="round" stroke-linejoin="round"/>
    <path d="M82 520Q60 520 60 542V658Q60 680 82 680" fill="none" stroke="#7c3aed" stroke-width="8" stroke-linecap="round" stroke-linejoin="round"/>
    <text class="box-title" x="90" y="568">Layout</text>
    <text class="code" x="90" y="604">layoutAttributes</text>
    <text class="box-text" x="90" y="640">셀·헤더의 크기·위치 계산</text>
  </g>

  <g>
    <rect x="390" y="520" width="280" height="160" rx="22" fill="#ffffff" filter="url(#shadow)"/>
    <rect x="390" y="520" width="280" height="160" rx="22" fill="#ffffff"/>
    <path d="M412 520H648Q670 520 670 542V658Q670 680 648 680H412" fill="none" stroke="#a78bfa" stroke-width="2" stroke-linecap="round" stroke-linejoin="round"/>
    <path d="M412 520Q390 520 390 542V658Q390 680 412 680" fill="none" stroke="#7c3aed" stroke-width="8" stroke-linecap="round" stroke-linejoin="round"/>
    <text class="box-title" x="420" y="568">Reusable Cells</text>
    <text class="code" x="420" y="604">CellRegistration</text>
    <text class="box-text" x="420" y="640">현재 item 데이터로 다시 구성</text>
  </g>

  <g>
    <rect x="730" y="520" width="280" height="160" rx="22" fill="#ffffff" filter="url(#shadow)"/>
    <rect x="730" y="520" width="280" height="160" rx="22" fill="#ffffff"/>
    <path d="M752 520H988Q1010 520 1010 542V658Q1010 680 988 680H752" fill="none" stroke="#5eead4" stroke-width="2" stroke-linecap="round" stroke-linejoin="round"/>
    <path d="M752 520Q730 520 730 542V658Q730 680 752 680" fill="none" stroke="#0f766e" stroke-width="8" stroke-linecap="round" stroke-linejoin="round"/>
    <text class="box-title" x="760" y="568">Prefetch</text>
    <text class="code code-teal" x="760" y="604">DataSourcePrefetching</text>
    <text class="box-text" x="760" y="640">보이기 전 데이터 준비</text>
    <text class="box-text" x="760" y="667">불필요해지면 작업 취소</text>
  </g>

  <g>
    <rect x="1060" y="520" width="280" height="160" rx="22" fill="#ffffff" filter="url(#shadow)"/>
    <rect x="1060" y="520" width="280" height="160" rx="22" fill="#ffffff"/>
    <path d="M1082 520H1318Q1340 520 1340 542V658Q1340 680 1318 680H1082" fill="none" stroke="#fbbf24" stroke-width="2" stroke-linecap="round" stroke-linejoin="round"/>
    <path d="M1082 520Q1060 520 1060 542V658Q1060 680 1082 680" fill="none" stroke="#d97706" stroke-width="8" stroke-linecap="round" stroke-linejoin="round"/>
    <text class="box-title" x="1090" y="568">Delegate</text>
    <text class="code code-amber" x="1090" y="604">UICollectionViewDelegate</text>
    <text class="box-text" x="1090" y="640">선택·표시·스크롤 이벤트</text>
    <text class="box-text" x="1090" y="667">사용자 상호작용 전달</text>
  </g>

  <path class="request" d="M1135 326C930 390 520 430 200 510" marker-end="url(#purple-arrow)"/>
  <rect x="470" y="395" width="112" height="28" rx="14" fill="#f3e8ff"/>
  <text x="526" y="414" text-anchor="middle" style="font-family:'Helvetica Neue','Apple SD Gothic Neo',Arial,sans-serif;font-size:14px;font-weight:700;fill:#6d28d9">위치 정보 요청</text>

  <path class="request" d="M1175 338C1035 400 790 450 530 510" marker-end="url(#purple-arrow)"/>
  <rect x="720" y="431" width="112" height="28" rx="14" fill="#f3e8ff"/>
  <text x="776" y="450" text-anchor="middle" style="font-family:'Helvetica Neue','Apple SD Gothic Neo',Arial,sans-serif;font-size:14px;font-weight:700;fill:#6d28d9">보이는 셀 요청</text>

  <path class="prefetch" d="M1225 350C1150 405 1005 455 870 510" marker-end="url(#teal-arrow)"/>
  <rect x="926" y="390" width="126" height="28" rx="14" fill="#ccfbf1"/>
  <text x="989" y="409" text-anchor="middle" style="font-family:'Helvetica Neue','Apple SD Gothic Neo',Arial,sans-serif;font-size:14px;font-weight:700;fill:#0f766e">표시 전 준비 요청</text>

  <path class="delegate" d="M1280 350C1310 405 1250 460 1200 510" marker-end="url(#amber-arrow)"/>
  <rect x="1128" y="450" width="132" height="28" rx="14" fill="#fef3c7"/>
  <text x="1194" y="469" text-anchor="middle" style="font-family:'Helvetica Neue','Apple SD Gothic Neo',Arial,sans-serif;font-size:14px;font-weight:700;fill:#b45309">선택·스크롤 알림</text>
</svg>
